<?xml version="1.0" standalone="no"?>
<!DOCTYPE svg PUBLIC "-//W3C//DTD SVG 20010904//EN"
 "http://www.w3.org/TR/2001/REC-SVG-20010904/DTD/svg10.dtd">
<svg version="1.0" xmlns="http://www.w3.org/2000/svg"
 width="343.000000pt" height="343.000000pt" viewBox="0 0 343.000000 343.000000"
 preserveAspectRatio="xMidYMid meet">
<metadata>
Created by potrace 1.14, written by Peter Selinger 2001-2017
</metadata>
<g transform="translate(0.000000,343.000000) scale(0.100000,-0.100000)"
fill="#000000" stroke="none">
<path d="M0 1720 l0 -1710 1715 0 1715 0 0 1710 0 1710 -1715 0 -1715 0 0
-1710z m3230 0 l0 -1510 -1515 0 -1515 0 0 1510 0 1510 1515 0 1515 0 0 -1510z"/>
<path d="M987 2344 c-1 -1 -31 -4 -67 -7 -120 -11 -213 -50 -280 -117 -55 -55
-81 -111 -87 -190 -15 -182 102 -300 397 -400 174 -59 230 -104 230 -185 0
-86 -69 -138 -184 -138 -149 0 -203 42 -241 188 -3 11 -231 13 -242 1 -13 -13
27 -148 57 -191 83 -121 213 -182 405 -190 164 -7 280 29 366 115 61 61 80
106 84 199 8 198 -97 304 -400 406 -189 64 -236 105 -225 200 3 33 39 74 78
91 22 10 66 17 108 17 60 0 80 -4 117 -26 45 -27 75 -72 79 -121 l2 -26 124 1
124 1 -7 52 c-24 173 -164 290 -377 316 -32 3 -59 6 -61 4z"/>
<path d="M1524 2301 c2 -14 36 -170 75 -346 39 -176 73 -329 75 -340 6 -26 83
-375 97 -437 6 -27 16 -48 22 -49 7 0 61 -1 121 -2 100 -2 109 0 117 18 8 17
79 305 165 665 l27 115 12 -45 c7 -25 41 -160 75 -300 34 -140 71 -293 82
-340 12 -47 21 -91 21 -97 0 -7 10 -13 21 -14 29 -1 153 -1 197 0 l36 1 17 73
c9 39 18 81 20 92 3 11 14 63 26 115 12 52 23 106 26 119 3 12 11 51 19 85 8
33 16 73 19 89 3 15 7 35 10 45 3 9 7 28 10 42 3 14 19 88 36 165 17 77 34
151 36 165 3 14 9 41 14 60 5 19 11 46 14 60 2 14 8 39 11 56 l7 30 -121 0
c-101 1 -122 -2 -126 -15 -4 -15 -67 -345 -80 -421 -3 -19 -8 -42 -10 -50 -2
-8 -6 -31 -9 -50 -3 -19 -12 -66 -20 -105 -8 -38 -17 -88 -20 -110 -17 -113
-19 -107 -90 201 -37 165 -79 346 -92 404 -13 58 -27 115 -29 126 -4 20 -10
21 -106 20 -77 -1 -102 -5 -108 -16 -7 -12 -35 -129 -55 -225 -23 -107 -137
-589 -141 -593 -3 -3 -5 -3 -5 0 0 5 -17 101 -35 193 -3 17 -32 167 -63 335
l-58 304 -122 2 -123 1 5 -26z"/>
</g>
</svg>
